<?xml version="1.0" encoding="utf-8"?>
<!-- Generator: Adobe Illustrator 16.0.0, SVG Export Plug-In . SVG Version: 6.00 Build 0)  -->
<!DOCTYPE svg PUBLIC "-//W3C//DTD SVG 1.1//EN" "http://www.w3.org/Graphics/SVG/1.1/DTD/svg11.dtd">
<svg version="1.1" id="Capa_1" xmlns="http://www.w3.org/2000/svg" xmlns:xlink="http://www.w3.org/1999/xlink" x="0px" y="0px"
	 width="867.087px" height="303.03px" viewBox="0 0 867.087 303.03" enable-background="new 0 0 867.087 303.03"
	 xml:space="preserve">
<g>
	<g>
		<path fill="#2C8990" d="M27.485,194.403v27.672H12.329v-99.594h15.156h2.707c9.427,0,17.456,3.519,24.086,10.555
			s9.946,15.518,9.946,25.439c0,9.97-3.315,18.472-9.946,25.508s-14.66,10.555-24.086,10.555
			C29.288,194.538,28.387,194.494,27.485,194.403z M27.485,137.299v42.219c0.856,0.136,1.759,0.203,2.707,0.203
			c5.548,0,10.272-2.074,14.174-6.225c3.901-4.149,5.853-9.156,5.853-15.021c0-5.862-1.952-10.859-5.853-14.986
			c-3.902-4.127-8.626-6.19-14.174-6.19H27.485z"/>
		<path fill="#2C8990" d="M80.462,122.616h15.155v42.22h35.048v-42.22h15.155v99.595h-15.155v-42.22H95.617v42.22H80.462V122.616z"
			/>
		<path fill="#2C8990" d="M264.427,172.143c0,6.947-1.343,13.454-4.026,19.521c-2.684,6.066-6.35,11.355-10.995,15.865
			c-4.646,4.512-10.059,8.086-16.238,10.725c-6.18,2.639-12.811,3.958-19.892,3.958c-7.127,0-13.78-1.319-19.959-3.958
			c-6.18-2.639-11.593-6.213-16.238-10.725c-4.646-4.51-8.312-9.799-10.995-15.865s-4.025-12.573-4.025-19.521
			c0-6.9,1.342-13.43,4.025-19.587s6.349-11.49,10.995-16.001c4.645-4.51,10.058-8.074,16.238-10.69
			c6.179-2.615,12.832-3.924,19.959-3.924c7.081,0,13.711,1.309,19.892,3.924c6.179,2.616,11.592,6.181,16.238,10.69
			c4.645,4.511,8.311,9.844,10.995,16.001C263.084,158.713,264.427,165.242,264.427,172.143z M178.432,172.143
			c0,4.827,0.902,9.349,2.707,13.566c1.803,4.218,4.284,7.894,7.442,11.028c3.156,3.136,6.855,5.594,11.096,7.375
			c4.239,1.782,8.772,2.672,13.6,2.672c4.781,0,9.292-0.89,13.532-2.672c4.239-1.781,7.927-4.239,11.062-7.375
			c3.134-3.135,5.604-6.811,7.409-11.028c1.803-4.218,2.706-8.739,2.706-13.566c0-4.825-0.903-9.347-2.706-13.565
			c-1.805-4.217-4.274-7.893-7.409-11.028c-3.136-3.135-6.823-5.582-11.062-7.341c-4.24-1.759-8.751-2.639-13.532-2.639
			c-4.827,0-9.36,0.88-13.6,2.639c-4.24,1.759-7.939,4.206-11.096,7.341c-3.158,3.136-5.639,6.812-7.442,11.028
			C179.334,162.796,178.432,167.317,178.432,172.143z"/>
		<path fill="#2C8990" d="M269.163,122.075h64.953v15.697h-24.898v84.438h-15.156v-84.438h-24.898V122.075z"/>
		<path fill="#2C8990" d="M440.272,172.143c0,6.947-1.343,13.454-4.026,19.521c-2.684,6.066-6.35,11.355-10.995,15.865
			c-4.646,4.512-10.059,8.086-16.238,10.725c-6.18,2.639-12.811,3.958-19.892,3.958c-7.127,0-13.78-1.319-19.959-3.958
			c-6.18-2.639-11.593-6.213-16.238-10.725c-4.646-4.51-8.311-9.799-10.994-15.865c-2.685-6.066-4.026-12.573-4.026-19.521
			c0-6.9,1.341-13.43,4.026-19.587c2.683-6.157,6.348-11.49,10.994-16.001c4.646-4.51,10.058-8.074,16.238-10.69
			c6.179-2.615,12.832-3.924,19.959-3.924c7.081,0,13.711,1.309,19.892,3.924c6.179,2.616,11.592,6.181,16.238,10.69
			c4.645,4.511,8.311,9.844,10.995,16.001C438.93,158.713,440.272,165.242,440.272,172.143z M354.278,172.143
			c0,4.827,0.902,9.349,2.706,13.566c1.804,4.218,4.285,7.894,7.443,11.028c3.157,3.136,6.855,5.594,11.096,7.375
			c4.239,1.782,8.772,2.672,13.6,2.672c4.781,0,9.292-0.89,13.532-2.672c4.239-1.781,7.927-4.239,11.062-7.375
			c3.134-3.135,5.604-6.811,7.409-11.028c1.803-4.218,2.706-8.739,2.706-13.566c0-4.825-0.903-9.347-2.706-13.565
			c-1.805-4.217-4.274-7.893-7.409-11.028c-3.136-3.135-6.823-5.582-11.062-7.341c-4.24-1.759-8.751-2.639-13.532-2.639
			c-4.827,0-9.36,0.88-13.6,2.639c-4.24,1.759-7.939,4.206-11.096,7.341c-3.158,3.136-5.639,6.812-7.443,11.028
			C355.18,162.796,354.278,167.317,354.278,172.143z"/>
		<path fill="#2C8990" d="M478.633,222.346c-4.33,0-8.152-0.541-11.469-1.623c-3.314-1.083-6.867-3.021-10.656-5.819v-18.606
			c2.346,2.481,4.15,4.161,5.413,5.041s2.808,1.816,4.635,2.808c1.827,0.993,3.845,1.827,6.056,2.504
			c2.209,0.677,4.397,1.015,6.562,1.015c4.466,0,8.13-1.545,10.994-4.635c2.864-3.089,4.297-6.754,4.297-10.994
			c0-3.474-1.218-6.293-3.653-8.458c-2.437-2.165-6.428-4.645-11.976-7.442c-3.339-1.714-6.157-3.27-8.457-4.668
			c-2.301-1.397-4.512-3.135-6.631-5.21c-2.121-2.074-3.834-4.544-5.143-7.409c-1.309-2.863-1.962-6.234-1.962-10.114
			c0.18-3.789,1.104-7.318,2.774-10.589c1.668-3.27,3.924-6.134,6.766-8.593c2.842-2.458,6.078-4.364,9.709-5.717
			c3.631-1.354,7.453-2.03,11.469-2.03c3.021,0.091,5.772,0.508,8.254,1.252c2.48,0.744,5.299,2.087,8.457,4.025v15.629
			c-1.895-1.262-3.191-2.04-3.891-2.334c-0.699-0.293-1.691-0.788-2.977-1.488c-1.285-0.699-2.773-1.296-4.465-1.793
			c-1.691-0.496-3.484-0.744-5.379-0.744c-4.24,0.045-7.826,1.387-10.758,4.025c-2.934,2.639-4.398,5.695-4.398,9.168
			c0.09,3.293,1.319,5.92,3.688,7.882c2.368,1.963,6.191,4.161,11.469,6.598c3.607,1.714,6.551,3.225,8.829,4.533
			c2.276,1.309,4.521,3,6.731,5.074c2.21,2.075,3.992,4.691,5.346,7.849s2.074,6.9,2.165,11.23c0,3.97-0.835,7.747-2.503,11.333
			c-1.67,3.586-3.992,6.756-6.97,9.507c-2.977,2.751-6.394,4.905-10.25,6.461C486.854,221.568,482.828,222.346,478.633,222.346z"/>
		<path fill="#2C8990" d="M572.205,191.832v-69.757h15.156v69.757c0,8.39-2.955,15.551-8.863,21.481
			c-5.91,5.932-13.059,8.897-21.448,8.897s-15.552-2.966-21.481-8.897c-5.932-5.931-8.897-13.092-8.897-21.481v-69.757h15.155
			v69.757c0,4.194,1.488,7.78,4.466,10.758c2.978,2.977,6.563,4.465,10.758,4.465s7.769-1.488,10.724-4.465
			C570.728,199.612,572.205,196.026,572.205,191.832z"/>
		<path fill="#2C8990" d="M618.755,194.403v27.672H603.6v-99.594h15.155v0.067c0.901-0.044,1.804-0.067,2.706-0.067
			c9.427,0,17.456,3.519,24.087,10.555c6.63,7.036,9.946,15.518,9.946,25.439c0,9.97-3.316,18.472-9.946,25.508
			c-1.669,1.759-3.406,3.293-5.21,4.601l18.064,33.762h-16.238l-15.02-28.281c-1.85,0.316-3.744,0.474-5.684,0.474
			C620.559,194.538,619.656,194.494,618.755,194.403z M618.755,137.434v42.084c0.856,0.136,1.759,0.203,2.706,0.203
			c5.549,0,10.272-2.074,14.175-6.225c3.901-4.149,5.853-9.156,5.853-15.021c0-5.862-1.951-10.859-5.853-14.986
			c-3.902-4.127-8.626-6.19-14.175-6.19C620.559,137.299,619.656,137.344,618.755,137.434z"/>
	</g>
</g>
<g>
	<path opacity="0.8" fill-rule="evenodd" clip-rule="evenodd" fill="#827866" d="M618.251,69.58c0,0,11.693-16.761,14.641-19.2
		c0,0-1.267,3.396,1.92-3.119c2.159-0.721,21.341-35.617,100.08-29.521c0,0,5.842,3.265,7.199,4.32l1.44,3.601l-2.159,0.72
		l-2.881,1.44l-2.64,1.44c0,0-1.96,0.39-1.681,2.159c0.281,1.771,0.24,2.88,0.24,2.88l-5.279-1.439c0,0-5.204-2.014-5.521-3.36
		s-1.844,0.145-2.16-2.399c-0.315-2.545,1.034-3.818-2.88-4.801s-9.17-4.176-14.641-0.96c0,0-0.646,0.505,1.44,1.681
		c2.088,1.176,3.841,2.64,3.841,2.64s1.634,1.466,3.359,1.44c1.727-0.027,0.96,0.959,0.96,0.959l-2.88,4.08
		c0,0-3.648,1.11-5.04,0.721c-1.392-0.391-3.12-1.2-3.12-1.2s1.63-0.812-1.92-0.72c-3.549,0.091-3.6-0.961-3.6-0.961l4.08-1.439
		l-1.2-2.641c0,0-1.252-0.092-3.841,1.44c-2.588,1.532,1.146-0.45-6.479,2.16s-12.239,3.601-12.239,3.601l-1.201,5.76l2.881,1.439
		c0,0,0.305,0.277,2.16,2.16c1.854,1.883,2.105-0.562,2.879,1.2c0.774,1.762,4.32,3.601,4.32,3.601s0.908-2.725,1.2-4.08
		c0.292-1.356-1.011-2.245,1.44-2.16c2.451,0.084,4.509-0.088,4.56-2.16s0.72-3.84,0.72-3.84s1.631-2.129,3.36-1.44
		s5.04,3.601,5.04,3.601s0.193,1.111,2.4,0c2.207-1.113,4.08-1.201,4.08-1.201s1.634,3.396,3.119,4.08
		c1.486,0.686,3.36,0.961,3.36,0.961l0.96,1.92l1.92,2.399l-4.08,2.16c0,0,0.553,0.28-3.119,0.72
		c-3.529,0.423-2.539,0.182-6.667,0.445c-0.169,0.011-0.347,0.022-0.534,0.035c-4.75,0.319-5.76,3.12-5.76,3.12l8.16-1.44
		c0,0-0.527,1.244,0.48,2.641c1.007,1.396,0.912,1.605-0.48,3.119s-2.88,3.36-2.88,3.36l-0.96-3.36c0,0-3.411,2.689-6.24,4.08
		c-2.829,1.392,1.988,2.571-2.4,3.601c0,0-4.492-2.108-5.52,0s-1.133,1.612-2.16,3.12c-1.026,1.506-2.16,4.32-2.16,4.32
		l-0.959-2.881l0.239,5.76c0,0-0.895,0.299-2.399,1.44c-1.506,1.142-2.337,0.302-4.801,2.88c-2.463,2.578-5.039,4.32-5.039,4.32
		s1.622,6.072,0.479,10.08c-1.144,4.008-2.099,6.068-2.88,2.88c-0.782-3.188-2.698-3.054-1.92-5.28
		c0.777-2.227-0.961-4.32-0.961-4.32s-1.379-0.176-2.879-0.479c-1.501-0.304-0.662-1.977-3.601-1.681
		c-2.938,0.297-3.182-1.374-4.319,0.721c-1.139,2.095-2.16,2.4-2.16,2.4s0.056-0.057-3.601-0.721s-2.825-2.213-5.76,0.721
		c-2.935,2.932-4.266,3.069-4.32,4.8c-0.054,1.729,0.534-2.087-0.479,2.88s-9.062,9.084,3.6,15.12c0,0-6.182,1.999,2.16,0.239
		c0,0,2.337-1.604,3.359-3.84c1.023-2.236,1.619-2.083,3.121-2.16c1.502-0.076,5.218-1.722,4.08,0
		c-1.139,1.723-1.623,3.682-1.92,5.041c-0.299,1.359-0.783,2.963-1.44,4.319s-3.302,0.925-1.44,1.681
		c1.862,0.756,2.1,0.563,3.6,0.479c1.502-0.084,5.041,0.24,5.041,0.24s2.46,1.286,2.16,2.64c-0.301,1.354-0.9,2.73-0.961,4.561
		c-0.06,1.83-1.379,2.373,0,4.8c1.38,2.427-0.657,2.975,3.601,3.601c4.258,0.625,5.943-2.066,7.44-0.721c1.496,1.346,2,2,2.159,2.4
		c0.16,0.399,1.2,0.16,1.681-0.24c0.479-0.4,1.439-1.84,1.92-2.4c0.479-0.56,2.08-1.76,2.16-2.88s0.239-1.681,0.239-1.681
		s-0.88,0,0.72,0.24c1.601,0.24,1.041,0.561,2.4,0c1.36-0.56,2.32-1.68,2.88-2.16c0.56-0.479,1.04-0.879,1.44-0.479
		s1.279,0.56,1.68,1.2c0.4,0.64,0.721,1.04-0.24,1.439c-0.959,0.4-1.84-0.319-1.68,0.721c0.16,1.039-1.68,2.24,0.48,1.439
		c2.16-0.8,2.56-1.68,3.359-2.16c0.801-0.479,1.2-0.479,1.68,0c0.48,0.48,1.36,0.801,1.92,1.44c0.561,0.64,1.201,1.04,1.92,1.2
		c0.721,0.16,1.921-0.32,2.4,0c0.48,0.32-1.52,0.48,1.68,0.72c3.201,0.24,5.041-0.319,6-0.72c0.961-0.4,1.201,0.08,1.201,0.48
		c0,0.399-0.24,1.199,0.959,1.439c1.2,0.24,3.121,0.48,3.121,0.48s0.079,0.399-0.24,0.959c-0.32,0.561-0.961,1.041-0.48,1.44
		s0.561,0.399,1.92,0.72c1.36,0.32,2.721,0.641,3.12,1.2s0.96,0.16,1.2,0.96c0.24,0.801,0.96,1.52,2.4,2.16
		c1.439,0.641,1.6,0.88,3.359,0.96s1.84-0.399,4.561,0c2.72,0.399,3.439,0.88,4.319,1.681c0.88,0.799,2.16,0.959,2.4,1.68
		c0.239,0.72,0.72,0.64,1.2,1.68c0.479,1.04,0.399,0.641,0.72,1.68c0.319,1.041,0.8,1.36,0.72,1.92
		c-0.08,0.561-0.48,0.961,0.48,1.44c0.96,0.479,0.72,0.96,1.68,0.72s0.24,0.24-0.72,0.961c-0.96,0.719-1.44,1.199-1.44,1.68
		c0,0.479-0.64,0.479,1.44,0.479c2.079,0,3.52,0.4,5.04,1.921c1.52,1.52,1.039,0.399,2.16,0.479c1.119,0.079,1.76,0,2.879,0.72
		c1.121,0.721,1.201,0.561,1.681,1.2s0.319,1.44,0.96,1.44s8.32,0,10.561,0.959c2.239,0.961,1.439,1.28,2.399,2.16
		c0.96,0.881,0.72,0.881,1.681,1.68c0.959,0.801,1.199,1.281,2.159,1.44c0.96,0.16,1.2,0.4,1.681,0c0.479-0.399,1.92,0,1.92,0
		s0,1.44,0.24,1.681c0.239,0.24,3.279,9.76-9.121,18c0,0-0.64,4.56-0.72,4.8c-0.079,0.239-0.159,1.84-0.239,2.399
		c-0.08,0.561,0,1.121-0.48,1.92c-0.48,0.801-0.96,2.881-0.96,2.881l-0.479,2.16c0,0-0.32,0.64-0.961,1.439
		c-0.64,0.8-1.52,1.52-1.92,2.16c-0.4,0.64-0.72,2.4-0.72,2.4s-1.12,1.439-1.681,1.68c-0.56,0.24-1.279,0.4-1.68,0.72
		c-0.399,0.319-0.399-0.08-1.199,0c-0.801,0.08-1.44,0.08-1.92,0.24c-0.48,0.159-1.601,0.159-1.92,0.479
		c-0.32,0.32,0.64-0.479-0.721,0.721c-1.359,1.199-0.8,0.56-3.12,1.199c-2.319,0.641-1.76,0.32-2.88,1.2s-2.16,2.4-2.16,2.4
		s0-0.479,0,0.479c0,0.961,0.561,2.08,0.48,2.641c-0.08,0.56,0.32,1.92-1.2,3.359c0,0-2.399,2.4-3.36,3.36
		c-0.959,0.96-2.479,1.2-2.16,0.72c0.32-0.48,0.16-1.359-0.479-0.72s-0.319-0.24-1.2,1.2c-0.88,1.439-1.04,1.279-1.199,2.16
		c-0.16,0.879-2.4,7.359-11.041,5.76c0,0,0,0.561,0.48,1.68c0.48,1.12,2,1.44,0.72,2.4s-1.84,1.439-2.88,2.16
		c-1.04,0.72-1.68,1.039-2.4,1.199c-0.72,0.16-2.879,0.24-3.6,0.24c-0.72,0-0.561,0.961-0.72,1.68c-0.16,0.721-0.72,4.48-4.08,2.4
		c0,0-0.479,0.881-0.24,1.92c0.24,1.04,0.96,0.4,0.24,1.68c-0.72,1.281,0.08,1.121-0.96,1.92c-1.04,0.801-1.04,0.32-1.92,1.201
		c-0.881,0.879-0.961,0.959-0.961,0.959s0.721,0.881,1.201,1.681c0.479,0.8,1.199,1.68,1.199,1.68s-0.24-0.399-1.199,0.72
		c-0.961,1.121-1.28,1.601-1.681,1.92c-0.399,0.32-1.04,0.16-0.96,0.721c0.08,0.56,0.561,0.24,0.721,1.92
		c0.159,1.68,0.399,2,0.719,3.12c0.32,1.12-0.239,1.2,0.961,1.92c1.199,0.72,0.479,1.6-0.24,0.96c-0.721-0.641-1.92-1.2-2.4-1.68
		c-0.479-0.48-1.279-1.121-1.68-1.681s-0.4-0.88-1.2-0.479s-5.44-0.721-6.96-9.36c0.48,0,0.96-0.479,0.96-0.479
		s2.48-9.601-4.079-9.601c0,0,1.92-3.12,0.719-5.76c0,0-0.08-3.84,1.681-6.24c0,0,0.08-6.16,0-6.96s-0.08-1.2-0.24-2.16
		c-0.159-0.96,0.72-1.52,0-1.92s-1.2-0.4-0.96-0.72c0.24-0.32,0.96-3.2,1.2-4.08c0.239-0.88,0.56-3.12,0.479-3.36
		s0.24-3.279,0.24-3.84s0-1.76,0-2.641c0-0.879-0.24-2.239-0.24-3.359s-0.879-2.08-0.72-2.641c0.16-0.559-0.239-2.399-0.239-2.399
		s-12.721-8.08-12.961-9.36c0,0-3.199-9.76-6.479-12.479c0.319,0-6-8.399-6.24-8.88s-0.56-1.36-0.24-1.68
		c0.32-0.32,0.72-1.761,1.44-2.16c0.72-0.4,1.68-1.44,1.68-1.44s2-1.84-2.16-1.2c0,0-1.119-4.96,3.12-9.119
		c0.32-0.24,0.96-1.521,1.92-2.641s1.2-0.88,2.16-1.92s1.681-2.801,1.681-3.84c0-1.04-0.4-1.6-0.48-2.4c-0.08-0.8,0.16-2.72,0-3.359
		c-0.16-0.641-0.561-1.36-0.96-0.961c-0.4,0.4-1.601,0.24-1.44-0.24c0.16-0.479,0.48-0.959,0.48-1.439s0.08-0.48-0.721-0.96
		c-0.799-0.479-0.799-0.96-1.68-0.72c-0.88,0.24-1.359,0-1.439,0.96s-1.041,1.92-0.961,2.399c0.08,0.48,0.48,1.36-0.479,0.721
		c-0.96-0.641-0.479-0.24-1.68-0.961c-1.2-0.719-0.8-0.959-1.681-0.959c-0.879,0-1.52,0.4-2.399-0.24s-1.28-0.641-1.681-1.92
		c-0.399-1.28,0.561-0.96-1.199-1.439c-1.76-0.48-1.92-0.48-1.92-0.48s-0.561-0.561-0.48-1.2s-1.12-6.16-3.12-6.479
		c0,0-10.159-0.561-12.72-6.961c0,0-3.04-1.359-4.08-1.439s-12.561-3.68-13.68-6.961c0,0,1.439-7.92,0.24-9.84
		c0,0-1.121-2-1.44-2.879c-0.32-0.881-0.24-2.641-0.24-2.641v-1.68l-0.479-1.92c0,0,0.08-2.561,0-3.12s-0.32-2.4-0.24-2.64
		c0.08-0.24-0.801-2.08-0.721,0.479c0,0,0.08,3.12,0,4.08s-0.16,2.08,0,2.64c0.16,0.561,0.16,4.48,0.24,5.04s0.24,0.56,0,1.44
		c-0.24,0.88-0.08,1.279-0.24,1.92c-0.16,0.64-0.08,3.279-1.199,2.16c0,0-0.16,0.08-0.48-0.721c-0.32-0.8-1.119-1.039-1.439-1.439
		s-0.961-0.4-0.721-0.96s0.561-0.96,0.721-1.44s0.32-2.72-0.24-3.119c-0.561-0.4-2.16-2.32-0.48-4.32c0,0,0.641-0.801,1.2-2.4
		s-0.399-4.24,0-4.8c0.4-0.56,0.8-2.88,0.479-3.36c-0.319-0.48-0.959-1.68-0.959-1.68S617.211,71.021,618.251,69.58z"/>
	<path opacity="0.8" fill-rule="evenodd" clip-rule="evenodd" fill="#827866" d="M755.531,23.26c0,0,49.681,16.08,65.761,44.4
		c0,0-5.28-5.28-9.121-7.2l4.32,6.24c0,0-6.72-4.561-9.359-7.68c0,0,0.24,3.359-1.68,0.959c0,0,1.68,4.801,2.159,6.48
		c0.48,1.68,1.681,4.08,1.681,4.08s-0.48,2.641-1.92,2.4c-1.44-0.24-3.601-1.44-4.561-1.44s-1.92,0.479-2.4-0.479
		c-0.479-0.961-5.52-8.4-7.439-10.32c0,0-0.48-2.4,2.64-1.68l3.36,0.959c0,0,0.72-5.52-7.439-8.399l0.239-1.92
		c0,0,2.64-1.681,0-3.12s-1.2-2.641-1.2-2.641l-1.439-1.68l-1.2-1.92c0,0-1.2,0.48-2.16-0.479s-2.16-2.16-2.16-2.16
		s-2.64-0.72-2.64,0.239C780.972,37.899,761.531,24.46,755.531,23.26z"/>
	<path opacity="0.8" fill-rule="evenodd" clip-rule="evenodd" fill="#827866" d="M828.731,78.22c0,0,53.04,67.92-1.68,154.801
		c-1.093,1.734-2.16,0.96,0.72-4.801c0,0,12-26.399,11.04-33.6c0,0,5.04-12.96,6-16.561c0,0,0.24-18.719-1.439-21.84
		c-1.681-3.119,0.72-3.359,0.72-4.799c0-1.44,0.96-6.721,0.96-6.721s-3.6-0.96-4.561-0.96c-0.959,0-1.68-1.44-1.92-2.88
		s-0.959-4.32-6.479,1.439c0,0-1.44-2.879-7.681,1.681c0,0-3.119-6.72-8.64-7.2c0,0-0.96-4.8-5.04-7.439c0,0-6.24-7.201-6.24-10.08
		c0,0,1.2-3.601,1.2-4.801c0-1.199-0.72-6-0.72-6s-1.92-5.04-2.641-6.24c-0.72-1.199,0.24-5.279,0.24-5.279s0.721-0.721,1.2-2.16
		s0.96-4.32,0.96-4.32l1.92-2.88c0,0,0-1.68-0.48-3.601c-0.479-1.92-2.399-3.6-1.68-4.56c0.721-0.96,2.16-2.399,2.16-2.399
		l0.48-1.681h1.92l1.92-1.68l2.16-2.399l1.199,0.239c0,0,1.92-0.72,2.881-0.96c0.959-0.24,3.119,0.24,3.6,3.12
		c0,0,1.2,1.92,1.68,2.88c0.48,0.96,2.16,2.641,2.16,2.641S825.611,79.9,828.731,78.22z"/>
	<path opacity="0.8" fill-rule="evenodd" clip-rule="evenodd" fill="#827866" d="M638.892,268.54c0,0,53.52,43.681,130.8,12
		c0,0-16.08,2.881-18.72,2.881c-2.641,0-3.6,0.479-5.28,0.72c-1.681,0.239-4.08,1.2-5.76,1.44c-1.681,0.24-3.12,0-5.521,0.72
		s-2.16,0.72-3.6,0.96s-1.439,0-3.36,0.72c-1.92,0.72-1.44,0.72-4.56,0.96c-3.12,0.24-4.561,0.48-6.721,0.24s-5.76-0.96-5.76-0.96
		s5.04-0.24,6-4.08c0,0-0.24-2.88-4.08-3.36c0,0-4.08-0.959,1.44-2.64c0,0-7.92-0.479-4.56,6.239l-2.4,0.48c0,0-2.4,0.24-4.08,0.24
		s-1.92,0.24-3.12,0s-4.56-0.24-4.56-0.24l-1.92,0.48c0,0-6.721-3.36-6,0.72c0,0-37.201-6.72-46.32-17.761
		C640.812,268.3,635.771,265.9,638.892,268.54z"/>
</g>
</svg>
